Coordinates
version=1
nRows=17
nColumns=36
inDegrees=yes

Units are S.I. units (second, meters, Newtons, ...)
If the header above contains a line with 'inDegrees', this indicates whether rotational values are in degrees (yes) or radians (no).

endheader
time	pelvis_tilt	pelvis_list	pelvis_rotation	pelvis_tx	pelvis_ty	pelvis_tz	hip_flexion_r	hip_adduction_r	hip_rotation_r	knee_angle_r	knee_angle_r_beta	ankle_angle_r	subtalar_angle_r	mtp_angle_r	hip_flexion_l	hip_adduction_l	hip_rotation_l	knee_angle_l	knee_angle_l_beta	ankle_angle_l	subtalar_angle_l	mtp_angle_l	lumbar_extension	lumbar_bending	lumbar_rotation	arm_flex_r	arm_add_r	arm_rot_r	elbow_flex_r	pro_sup_r	arm_flex_l	arm_add_l	arm_rot_l	elbow_flex_l	pro_sup_l
      5.28333330	    -28.21502366	     -3.41123629	     10.61349988	      0.80741198	      0.74006123	     -0.17438577	     79.15498308	    -14.10738075	      1.02796093	     69.87988386	      1.21963405	     20.33383290	    -11.09563765	     -7.49999987	     79.65262893	     -8.26589500	      2.59399225	     68.46070903	      1.19486478	     17.08519669	     -8.79239918	     -7.49999987	    -34.74147335	     -0.07938911	     -0.31709764	     96.98946892	      1.36737066	     81.86677651	    131.79725232	     84.76454798	     99.43281511	     11.59004149	     74.91072473	    122.87701776	     85.26992665
      5.30000000	    -27.14808856	     -2.95111688	     10.55081585	      0.80795639	      0.75064684	     -0.16853186	     76.61039143	    -13.78317758	      0.97633171	     67.83397262	      1.18392617	     19.57407688	    -11.27317654	     -7.49999987	     76.71479610	     -8.27369944	      2.22435468	     65.93084733	      1.15071036	     16.18757879	     -9.38348508	     -7.49999987	    -34.55343665	     -0.37121848	     -0.17424319	     96.63647921	      1.73403918	     81.59855783	    131.66635173	     85.12228739	     99.44489737	     11.31865608	     74.49777960	    123.70693916	     85.28819003
      5.31666670	    -26.72097934	     -2.56982606	     10.32640905	      0.80453282	      0.75757236	     -0.16944804	     75.24073845	    -13.63776583	      0.97361474	     66.09010324	      1.15348990	     18.84388787	    -10.92308693	     -7.49999987	     74.96122388	     -8.07800553	      2.04387967	     63.94056591	      1.11597340	     15.93775982	     -9.32248975	     -7.49999987	    -33.36030847	     -0.66836881	     -0.11136648	     96.10083623	      1.76780785	     81.32180096	    131.64939459	     85.21136293	     99.46787830	     11.12745240	     74.00791155	    123.83683759	     85.24214118
      5.33333330	    -25.54946997	     -2.15814247	     10.64143468	      0.82306749	      0.78060881	     -0.16411556	     71.53497825	    -13.37349201	      0.73149089	     63.29230868	      1.10465918	     18.13878970	    -11.45793718	     -7.49999987	     71.10615322	     -7.87128142	      1.78831304	     60.53576541	      1.05654842	     14.57232858	     -9.44697056	     -7.49999987	    -32.96214828	     -0.91802340	     -0.50296102	     93.74927810	      2.39156346	     81.28558631	    131.03635786	     85.10032878	     97.15380191	     10.35237347	     74.43105738	    124.62024856	     84.41594517
      5.35000000	    -24.51180079	     -1.87555757	     10.70632172	      0.82657077	      0.78511550	     -0.16218593	     68.50352072	    -13.10809522	      0.23672857	     61.16573895	      1.06754353	     18.14284046	    -11.65563015	     -7.49999987	     67.99264266	     -8.09059723	      1.45640023	     58.20026840	      1.01578631	     14.30180873	     -8.95909128	     -7.49999987	    -31.92464844	     -1.35474246	     -0.30634643	     90.84403975	      2.63325499	     80.75153611	    131.09083244	     85.49696767	     95.35495047	     10.21726737	     74.67833917	    125.12727500	     84.46839513
      5.36666670	    -23.58837172	     -1.57495097	     10.71986545	      0.82504416	      0.79744716	     -0.16135287	     65.74367743	    -12.88679361	     -0.01845749	     58.79198614	      1.02611373	     18.09206717	    -11.51791393	     -7.49999987	     65.10126133	     -8.18238124	      1.07514175	     55.73584599	      0.97277402	     13.56633046	     -8.44292555	     -7.49999987	    -30.84285783	     -1.76556159	     -0.26981661	     88.92261879	      3.21151177	     80.11242943	    130.74705799	     85.78801696	     94.38748802	     10.09371090	     74.12048735	    125.01317535	     84.38828705
      5.38333330	    -22.06493938	     -1.16573670	     10.94488855	      0.82829930	      0.81127209	     -0.15850693	     62.24808256	    -12.76677224	     -0.36115404	     56.31919536	      0.98295539	     18.04852452	    -11.45712322	     -7.49999987	     61.62383009	     -8.08572048	      0.76455867	     53.11585328	      0.92704652	     12.70502948	     -7.81561688	     -7.49999987	    -30.45424058	     -2.00541507	     -0.39226488	     87.58276497	      4.18187299	     79.75590092	    129.52915204	     86.32355663	     93.25200905	      9.48017420	     73.51632626	    124.64341178	     84.27025411
      5.40000000	    -20.84753606	     -0.95668872	     10.94977230	      0.82718419	      0.82577342	     -0.15804825	     58.95167397	    -12.45032631	     -0.75116215	     53.31311134	      0.93048933	     17.49974530	    -11.49047282	     -7.49999987	     58.60173974	     -8.18418285	      0.42619821	     50.45727085	      0.88064551	     11.43571258	     -7.60184474	     -7.49999987	    -30.12615304	     -1.95189977	     -0.17547791	     86.60547587	      4.39324093	     78.71088430	    129.03835497	     86.30929318	     91.83101895	      8.72671674	     72.95654132	    125.05705152	     83.35375365
      5.41666670	    -20.26922882	     -0.70507962	     10.74514205	      0.83187559	      0.83515727	     -0.15534816	     56.27403626	    -12.05688023	     -1.06293369	     50.27268022	      0.87742379	     17.21510441	    -10.77301095	     -7.49999987	     56.18391070	     -8.37727914	     -0.16111711	     47.83461561	      0.83487154	     10.34945159	     -7.01650254	     -7.49999987	    -28.64574305	     -2.45108645	      0.20784712	     85.05413217	      4.64307600	     78.27722339	    128.70062222	     85.33364625	     90.00049137	      8.22647227	     72.24325468	    124.89126053	     82.18355619
      5.43333330	    -19.01407590	     -0.42283698	     10.55026353	      0.84277566	      0.85101139	     -0.15302033	     52.09809210	    -11.56305783	     -1.53174751	     46.35556061	      0.80905716	     16.56146728	    -10.51326321	     -7.49999987	     52.39098008	     -8.56509607	     -0.62359314	     44.48452974	      0.77640151	      9.06282174	     -6.67270533	     -7.49999987	    -27.97173650	     -2.67719939	      0.55832068	     83.25479651	      4.97216546	     78.34870486	    127.98174234	     86.17303812	     87.38723861	      7.93482068	     71.31058767	    125.17643273	     81.81501373
      5.45000000	    -18.18622227	     -0.31353627	     10.12813219	      0.85080935	      0.85943137	     -0.14955401	     48.57216397	    -10.87643486	     -2.07128866	     42.67884790	      0.74488642	     16.24046261	     -9.65635961	     -7.49999987	     49.05917767	     -9.16521453	     -1.39748366	     41.26842755	      0.72026994	      8.33639955	     -5.38510198	     -7.49999987	    -26.26553526	     -3.09664709	      1.01781478	     79.51917511	      5.11109591	     78.52316065	    128.61480195	     86.83575597	     83.80412109	      8.50505755	     72.51929377	    126.08874589	     81.86477985
      5.46666670	    -17.24520515	     -0.39305775	     10.03974596	      0.85779269	      0.86714095	     -0.14623682	     45.17843115	    -10.17417128	     -2.67924143	     39.55668853	      0.69039446	     15.85225841	     -9.42493061	     -7.49999987	     45.83634879	     -9.74710003	     -1.92579563	     38.26415347	      0.66783546	      7.75985170	     -3.81037624	     -7.49999987	    -24.49583994	     -3.56807155	      1.12619747	     75.84322985	      5.51682247	     76.43074738	    129.26244247	     97.26263939	     81.32111319	      8.88140275	     72.99609996	    126.09894478	     83.42065067
      5.48333330	    -16.45333006	     -0.31003887	     10.36714597	      0.86355733	      0.87519501	     -0.15310511	     42.21159412	    -10.24945876	     -3.47826966	     36.93874116	      0.64470265	     15.36994464	     -9.00252387	     -7.49999987	     42.95670254	     -9.51916001	     -2.36070188	     35.60276403	      0.62138546	      7.20365401	     -2.97016129	     -7.49999987	    -22.43681990	     -3.65250696	      0.86049551	     72.62125745	      6.00426653	     76.82783104	    130.01488634	     97.28719478	     78.55750431	      8.99827580	     73.71002866	    126.44458961	     83.38041527
      5.50000000	    -15.60786257	     -0.21081136	     10.92218084	      0.87207200	      0.88407755	     -0.15748196	     39.05741188	    -10.48002246	     -4.27832631	     34.34524698	      0.59943764	     14.84247742	     -8.64476194	     -7.49999987	     40.04856879	     -8.98250095	     -2.39007481	     32.93455052	      0.57481634	      6.66571923	     -2.32501322	     -7.49999987	    -20.46183776	     -3.56991493	      0.90043442	     69.19668000	      5.69077998	     76.79814857	    130.50958757	     97.28871473	     75.22879796	      9.45456866	     74.29803729	    126.82831011	     83.31708300
      5.51666670	    -14.43469947	      0.09312912	     11.32535529	      0.88503852	      0.89595390	     -0.15924614	     35.27575424	    -10.74813860	     -5.23026148	     31.48005258	      0.54943057	     14.20089666	     -8.11228987	     -7.49999987	     36.27658815	     -8.41696292	     -2.56896686	     29.80318432	      0.52016369	      6.12995591	     -1.66735528	     -7.49999987	    -18.90542587	     -3.78192512	      1.02482100	     64.80954720	      5.68337080	     75.93672209	    130.69470039	     97.27962352	     71.20988520	      9.88056693	     74.53107982	    126.39745048	     82.99429257
      5.53333330	    -13.48706211	      0.49700371	     11.52993977	      0.89403960	      0.90202654	     -0.15850082	     31.97249702	    -10.83411299	     -5.73675518	     28.85658196	      0.50364237	     13.88709442	     -7.56286186	     -7.49999987	     32.74348958	     -7.84652213	     -2.64844042	     26.65113867	      0.46515012	      5.83578947	     -0.86724120	     -7.49999987	    -17.18940133	     -3.96672326	      1.24512061	     61.00099930	      5.85419317	     76.02751686	    130.85553652	     95.40289841	     67.71815322	      9.86803017	     74.74005516	    127.17152808	     81.86977843
      5.55000000	    -12.72171084	      0.70769098	     11.25159665	      0.90085977	      0.91141294	     -0.15446032	     28.78396427	    -10.26980066	     -6.01048306	     25.45855975	      0.44433569	     13.33093936	     -6.90704766	     -7.49999987	     29.58119249	     -7.80553564	     -2.74451397	     23.50008954	      0.41015394	      5.10462141	     -0.27878004	     -7.49999987	    -15.22228671	     -4.23956500	      1.59560216	     57.30237576	      6.22347610	     76.26751005	    130.71514378	     95.41041976	     64.20028174	      9.61259782	     75.59651140	    127.41385165	     81.65382424
